PathFileType	4	(X/Y/Z)	C:\InverseKin\data\OA1\Walking\OA1_80_1.trc
DataRate	CameraRate	NumFrames	NumMarkers	Units	OrigDataRate	OrigDataStartFrame	OrigNumFrames
100.00	100.00	       5	42	mm	100.00	110	       291
Frame#	Time	R.Shoulder			R.Clavicle			R.Bicep			R.Elbow			R.Forearm			R.Wrist			L.Shoulder			L.Clavicle			L.Scapula			L.Bicep			L.Elbow			L.Forearm			L.Wrist			R.ASIS			R.Iliac			R.PSIS			S2			L.PSIS			L.Iliac			L.ASIS			R.TH1			R.TH2			R.TH3			R.Knee			R.SH1			R.SH2			R.SH3			R.SH4			R.Ankle			R.Heel			R.MT5			L.TH1			L.TH2			L.TH3			L.TH4			L.Knee			L.SH1			L.SH2			L.SH3			L.Ankle			L.Heel			L.MT5			
		X1	Y1	Z1	X2	Y2	Z2	X3	Y3	Z3	X4	Y4	Z4	X5	Y5	Z5	X6	Y6	Z6	X7	Y7	Z7	X8	Y8	Z8	X9	Y9	Z9	X10	Y10	Z10	X11	Y11	Z11	X12	Y12	Z12	X13	Y13	Z13	X14	Y14	Z14	X15	Y15	Z15	X16	Y16	Z16	X17	Y17	Z17	X18	Y18	Z18	X19	Y19	Z19	X20	Y20	Z20	X21	Y21	Z21	X22	Y22	Z22	X23	Y23	Z23	X24	Y24	Z24	X25	Y25	Z25	X26	Y26	Z26	X27	Y27	Z27	X28	Y28	Z28	X29	Y29	Z29	X30	Y30	Z30	X31	Y31	Z31	X32	Y32	Z32	X33	Y33	Z33	X34	Y34	Z34	X35	Y35	Z35	X36	Y36	Z36	X37	Y37	Z37	X38	Y38	Z38	X39	Y39	Z39	X40	Y40	Z40	X41	Y41	Z41	X42	Y42	Z42	

110	1.090	-403.88940	44.27881	1395.81958	-383.24545	210.96068	1352.83020	-353.60345	43.44226	1267.20508	-363.60959	-52.22058	1094.94031	-275.33182	-7.28165	1022.75861	-216.80719	-29.48045	908.66034	-459.00412	427.12381	1391.84204	-383.80783	266.00018	1358.22388	-597.13074	321.12238	1328.34253	-460.02289	427.26031	1144.25586	-541.62561	474.77316	1086.63013	-471.83011	434.62039	940.63440	-479.10471	471.64539	852.05890	-363.13440	92.90914	1003.82092	-490.25378	48.85350	1085.07178	-606.16327	142.70082	1037.68616	-617.35736	200.46262	1017.20862	-606.08173	258.28918	1034.73438	-500.81314	382.45047	1060.97754	-379.30197	341.20309	992.10443	-370.09094	106.13448	738.97681	-374.08261	120.73752	662.06848	-499.10373	43.78201	654.53156	-482.09894	80.97871	501.82132	-442.70166	169.89792	340.94772	-458.33380	176.57832	270.72211	-512.32465	80.59070	349.52695	-533.76251	89.61258	279.70279	-546.34045	139.14299	98.61620	-626.52954	197.33101	46.91221	-442.13541	109.87361	39.35720	-323.10199	350.89941	815.24310	-292.92841	341.78345	739.44769	-456.37936	401.51868	762.13275	-421.64575	395.01105	680.98309	-325.70816	370.76724	534.21008	-315.37067	360.52307	384.89624	-337.75476	350.29382	312.80078	-446.40921	349.29773	343.56604	-457.95068	343.70462	153.67294	-528.04767	279.42615	113.49313	-376.65579	391.96558	60.36201	
111	1.100	-393.58884	44.63045	1395.70203	-373.68246	210.75809	1352.69141	-342.39554	43.00458	1268.16040	-346.90936	-50.80896	1095.33936	-257.20959	-4.72265	1026.16113	-195.58624	-26.00830	913.74213	-450.45682	426.66779	1390.69910	-373.84805	266.04990	1357.75134	-587.51184	320.23581	1327.92139	-454.53241	427.55719	1143.77661	-537.78961	473.96484	1086.62158	-468.51453	434.36243	940.13464	-480.97150	473.79822	851.54138	-352.14050	94.30335	1003.95758	-480.44281	49.02254	1084.67297	-596.45532	142.17300	1037.24023	-607.49310	200.16718	1016.68689	-596.70068	258.09595	1034.77856	-492.11969	383.53412	1059.61865	-369.32346	340.75906	991.19092	-363.19736	104.88543	736.81110	-368.23389	119.86042	660.19263	-493.55429	43.99291	654.49066	-479.04105	80.72485	501.76886	-440.50336	169.80557	340.40884	-456.40668	175.82184	269.43527	-510.30402	80.57583	349.15317	-532.54974	90.10896	279.72665	-546.12628	139.05478	98.82639	-626.52954	197.33101	46.91221	-441.96771	109.81747	39.35083	-312.91086	348.80795	815.48853	-281.98065	340.70032	740.28815	-442.86832	403.05789	760.61121	-410.25671	395.07443	680.75269	-313.20901	369.97232	534.38843	-294.72324	359.41675	384.29620	-313.11041	349.65860	311.68494	-424.17227	350.71799	335.51968	-424.39548	344.47595	145.74512	-493.06894	280.70978	100.95124	-338.11304	392.91901	57.26757	
112	1.110	-382.96158	44.29887	1395.31018	-362.45972	211.18076	1352.56897	-330.15173	43.83997	1268.78687	-331.12189	-49.79417	1096.34595	-239.02328	-2.47603	1029.57886	-173.68700	-22.04236	919.44977	-441.69235	426.97086	1389.95337	-364.40744	266.05560	1356.99463	-577.95459	319.77148	1327.36841	-448.89484	428.03119	1142.50476	-532.88373	472.17322	1086.85022	-464.46613	435.93063	939.91534	-481.13199	476.01648	851.71655	-343.97858	92.29059	1002.26782	-471.00082	48.34748	1084.17395	-586.49664	142.31189	1036.55969	-596.74457	200.05168	1015.40405	-586.76929	257.97644	1033.74927	-479.33170	382.16306	1059.98389	-358.30795	341.06873	991.50140	-356.31674	104.37603	734.72888	-362.21655	119.28937	658.41962	-488.24673	44.24229	654.77521	-475.54251	80.60303	501.88046	-438.76117	170.07423	339.90543	-455.79663	175.98567	269.35703	-508.53867	80.52847	349.43658	-531.03809	89.98098	279.81641	-546.35394	138.83195	99.29152	-626.16455	197.44324	46.74579	-441.73819	109.54408	39.57206	-302.66391	347.34290	815.32617	-271.50940	339.03119	740.00836	-430.88672	403.71286	760.77777	-399.54047	394.50320	680.73114	-300.22137	369.22604	533.36218	-274.42346	358.46573	384.48602	-289.10056	348.83331	310.17719	-400.56604	353.07321	328.61667	-390.26596	345.90857	138.34070	-457.11359	283.30405	90.38342	-299.03271	393.39310	54.72246	
113	1.120	-372.67148	44.32435	1395.09351	-352.94342	210.37119	1351.79504	-319.11185	44.94036	1269.00537	-315.26419	-49.20570	1097.18982	-221.32565	-0.21856	1033.03833	-153.32574	-19.28755	924.81689	-432.36386	426.72525	1388.85095	-354.74957	265.81927	1355.86829	-567.77014	319.23019	1326.69055	-442.76334	428.68185	1141.52563	-528.82715	470.74008	1086.97412	-460.49319	437.62579	940.41400	-480.24646	477.15686	851.21948	-333.74158	93.92121	1001.43640	-460.54974	48.35160	1082.88562	-577.30920	142.88576	1035.65186	-586.98035	200.19911	1015.36847	-576.62720	257.88654	1033.23755	-468.31592	382.79404	1058.95752	-348.11719	341.13287	990.77063	-349.31116	103.89639	733.01569	-356.83478	119.08471	656.64764	-482.87616	44.14512	654.40601	-472.45676	81.01960	501.65317	-436.53406	169.38483	339.63275	-453.48831	176.11003	268.88565	-506.55222	80.17505	349.47675	-529.96417	89.51752	280.37646	-546.46564	138.87006	99.90217	-626.25305	197.27267	47.04304	-442.27112	109.98000	39.43429	-292.74246	345.62531	814.51306	-261.73041	337.00183	739.76141	-416.47623	405.29697	759.35510	-387.95895	393.43265	680.45996	-288.83859	368.97217	532.85535	-254.88876	357.50043	384.24313	-265.05029	347.75122	309.00192	-377.12457	354.40302	320.56277	-356.26682	345.97443	131.41747	-420.74411	284.88745	80.04099	-260.36493	394.09048	53.67128	
114	1.130	-362.22968	44.52161	1394.09448	-342.74289	210.81326	1350.53625	-305.83450	44.85222	1270.55042	-299.20218	-48.40825	1097.39697	-204.24782	1.80801	1036.42090	-132.89127	-15.61228	930.10608	-423.59161	426.85651	1387.91125	-344.95795	266.29031	1355.12866	-558.32941	318.97791	1325.55542	-437.43402	429.46402	1140.88000	-523.78741	469.01535	1087.19604	-456.30261	439.09946	939.02545	-478.79877	478.62979	851.56079	-324.09525	92.39623	999.78900	-450.24933	48.35167	1082.02417	-566.88873	142.64970	1034.72815	-576.98364	199.99916	1014.30548	-566.33630	257.68240	1032.18640	-458.39630	382.31802	1058.67505	-337.24884	341.54993	989.93750	-342.42868	103.47762	731.45392	-350.76663	118.38862	654.82355	-476.92615	44.31579	654.77661	-468.94388	80.86885	501.72662	-434.42526	168.40886	338.71915	-452.52182	175.54866	268.91296	-504.06265	79.85133	349.40735	-528.43378	89.38895	280.51837	-546.51349	138.98586	99.92274	-626.43933	197.31812	47.29433	-442.27112	109.98000	39.43429	-282.43018	345.04041	813.35748	-251.40782	335.32962	738.38574	-406.78983	404.59262	758.44580	-377.74924	391.41696	679.01288	-277.51791	368.66049	531.21057	-235.76489	356.00366	384.08826	-241.43282	347.30026	308.81845	-354.22443	355.83371	313.45636	-322.05042	348.09482	126.20624	-384.25446	286.21777	70.94334	-222.29443	394.74997	53.17310	
